<?xml version="1.0" encoding="UTF-8" standalone="no"?>
<svg
   xmlns:dc="http://purl.org/dc/elements/1.1/"
   xmlns:cc="http://creativecommons.org/ns#"
   xmlns:rdf="http://www.w3.org/1999/02/22-rdf-syntax-ns#"
   xmlns:svg="http://www.w3.org/2000/svg"
   xmlns="http://www.w3.org/2000/svg"
   xmlns:sodipodi="http://sodipodi.sourceforge.net/DTD/sodipodi-0.dtd"
   xmlns:inkscape="http://www.inkscape.org/namespaces/inkscape"
   id="master-artboard"
   viewBox="0 0 440.20001 432.70007"
   version="1.1"
   x="0px"
   y="0px"
   width="440.20001"
   height="432.70007"
   inkscape:version="0.91 r13725"
   sodipodi:docname="commercial.svg">
  <metadata
     id="metadata4383">
    <rdf:RDF>
      <cc:Work
         rdf:about="">
        <dc:format>image/svg+xml</dc:format>
        <dc:type
           rdf:resource="http://purl.org/dc/dcmitype/StillImage" />
        <dc:title></dc:title>
      </cc:Work>
    </rdf:RDF>
  </metadata>
  <defs
     id="defs4381" />
  <sodipodi:namedview
     pagecolor="#ffffff"
     bordercolor="#666666"
     borderopacity="1"
     objecttolerance="10"
     gridtolerance="10"
     guidetolerance="10"
     inkscape:pageopacity="0"
     inkscape:pageshadow="2"
     inkscape:window-width="1920"
     inkscape:window-height="1017"
     id="namedview4379"
     showgrid="false"
     fit-margin-top="0"
     fit-margin-left="0"
     fit-margin-right="0"
     fit-margin-bottom="0"
     inkscape:zoom="0.53403099"
     inkscape:cx="-536.21042"
     inkscape:cy="186.46574"
     inkscape:window-x="-8"
     inkscape:window-y="-8"
     inkscape:window-maximized="1"
     inkscape:current-layer="master-artboard" />
  <rect
     id="ee-background"
     x="-442.81424"
     y="-90.024521"
     width="1096"
     height="780"
     style="fill:#ffffff;fill-opacity:0" />
  <path
     d="m 84.17459,131.16979 270.39999,0 0,223.60019 -270.39999,0 0,-223.60019 z"
     class="st15"
     style="fill:#157faf"
     id="path4193"
     inkscape:connector-curvature="0" />
  <path
     d="m 84.27457,320.76998 270.30001,0 0,34.6 -270.30001,0 0,-34.6 z"
     class="st16"
     style="fill:#0f6086"
     id="path4195"
     inkscape:connector-curvature="0" />
  <path
     d="m 78.77457,119.16976 281.20001,0 0,12.00003 -281.20001,0 0,-12.00003 z"
     class="st17"
     style="fill:#00405c"
     id="path4197"
     inkscape:connector-curvature="0" />
  <path
     d="m 218.67458,295.56997 -32.70001,0 0,57.70001 32.70001,0 32.79999,0 0,-57.70001 z"
     class="st15"
     style="fill:#157faf"
     id="path4199"
     inkscape:connector-curvature="0" />
  <path
     d="m 187.77456,297.46994 30.2,0 0,54 -30.2,0 0,-54 z"
     class="st16"
     style="fill:#0f6086"
     id="path4201"
     inkscape:connector-curvature="0" />
  <path
     d="m 219.5746,297.46994 30.10001,0 0,54 -30.10001,0 0,-54 z"
     class="st16"
     style="fill:#0f6086"
     id="path4203"
     inkscape:connector-curvature="0" />
  <path
     class="st15"
     d="m 215.37458,329.36996 -3.7,0 c -0.4,0 -0.7,-0.3 -0.7,-0.7 l 0,0 c 0,-0.4 0.3,-0.7 0.7,-0.7 l 3.7,0 c 0.4,0 0.7,0.3 0.7,0.7 l 0,0 c 0.1,0.3 -0.2,0.7 -0.7,0.7 z"
     style="fill:#157faf"
     id="path4205"
     inkscape:connector-curvature="0" />
  <path
     class="st15"
     d="m 225.67458,329.36996 -3.7,0 c -0.4,0 -0.7,-0.3 -0.7,-0.7 l 0,0 c 0,-0.4 0.3,-0.7 0.7,-0.7 l 3.7,0 c 0.4,0 0.7,0.3 0.7,0.7 l 0,0 c 0,0.3 -0.3,0.7 -0.7,0.7 z"
     style="fill:#157faf"
     id="path4207"
     inkscape:connector-curvature="0" />
  <path
     d="m 82.8746,353.16995 273.39998,0 0,4.4 -273.39998,0 0,-4.4 z"
     class="st17"
     style="fill:#00405c"
     id="path4209"
     inkscape:connector-curvature="0" />
  <g
     transform="translate(-695.32542,-310.63004)"
     id="g4211">
    <path
       d="m 973,525.29999 31.2,0 0,25.9 -31.2,0 0,-25.9 z"
       class="st16"
       style="fill:#0f6086"
       id="path4213"
       inkscape:connector-curvature="0" />
    <path
       d="m 974.59998,527.5 0,21.40002 0,0.1 28.00002,0 0,-21.5 0,0 z"
       class="st7"
       style="fill:#68bac6"
       id="path4215"
       inkscape:connector-curvature="0" />
  </g>
  <path
     d="m 221.27456,214.66995 31.2,0 0,25.90002 -31.2,0 0,-25.90002 z"
     class="st16"
     style="fill:#0f6086"
     id="path4217"
     inkscape:connector-curvature="0" />
  <path
     d="m 222.87459,216.86996 0,21.40004 0,0.1 28,0 0,-21.50002 0,0 z"
     class="st7"
     style="fill:#68bac6"
     id="path4219"
     inkscape:connector-curvature="0" />
  <path
     d="m 184.37459,214.66995 31.2,0 0,25.90002 -31.2,0 0,-25.90002 z"
     class="st16"
     style="fill:#0f6086"
     id="path4221"
     inkscape:connector-curvature="0" />
  <path
     d="m 185.97457,216.86996 0,21.40004 0,0.1 28,0 0,-21.50002 0,0 z"
     class="st7"
     style="fill:#68bac6"
     id="path4223"
     inkscape:connector-curvature="0" />
  <path
     d="m 128.67459,214.66995 31.2,0 0,25.90002 -31.2,0 0,-25.90002 z"
     class="st16"
     style="fill:#0f6086"
     id="path4225"
     inkscape:connector-curvature="0" />
  <path
     d="m 130.27457,216.86996 0,21.40004 0,0.1 28,0 0,-21.50002 0,0 z"
     class="st7"
     style="fill:#68bac6"
     id="path4227"
     inkscape:connector-curvature="0" />
  <g
     transform="translate(-695.32542,-310.63004)"
     id="g4229">
    <path
       d="m 973,455.29999 31.2,0 0,25.9 -31.2,0 0,-25.9 z"
       class="st16"
       style="fill:#0f6086"
       id="path4231"
       inkscape:connector-curvature="0" />
    <path
       d="m 974.59998,457.5 0,21.29999 0,0.20001 28.00002,0 0,-21.5 0,0 z"
       class="st7"
       style="fill:#68bac6"
       id="path4233"
       inkscape:connector-curvature="0" />
  </g>
  <path
     d="m 277.67458,179.66995 31.2,0 0,25.9 -31.2,0 0,-25.9 z"
     class="st16"
     style="fill:#0f6086"
     id="path4235"
     inkscape:connector-curvature="0" />
  <path
     d="m 279.27456,181.86996 0,21.40002 0,0.1 28.00002,0 0,-21.5 0,0 z"
     class="st7"
     style="fill:#68bac6"
     id="path4237"
     inkscape:connector-curvature="0" />
  <g
     transform="translate(-695.32542,-310.63004)"
     id="g4239">
    <path
       d="m 916.59998,455.29999 31.2,0 0,25.9 -31.2,0 0,-25.9 z"
       class="st16"
       style="fill:#0f6086"
       id="path4241"
       inkscape:connector-curvature="0" />
    <path
       d="m 918.20001,457.5 0,21.29999 0,0.20001 28,0 0,-21.5 0,0 z"
       class="st7"
       style="fill:#68bac6"
       id="path4243"
       inkscape:connector-curvature="0" />
  </g>
  <path
     d="m 221.27456,179.66995 31.2,0 0,25.9 -31.2,0 0,-25.9 z"
     class="st16"
     style="fill:#0f6086"
     id="path4245"
     inkscape:connector-curvature="0" />
  <path
     d="m 222.87459,181.86996 0,21.40002 0,0.1 28,0 0,-21.5 0,0 z"
     class="st7"
     style="fill:#68bac6"
     id="path4247"
     inkscape:connector-curvature="0" />
  <g
     transform="translate(-695.32542,-310.63004)"
     id="g4249">
    <path
       d="m 879.70001,455.29999 31.2,0 0,25.9 -31.2,0 0,-25.9 z"
       class="st16"
       style="fill:#0f6086"
       id="path4251"
       inkscape:connector-curvature="0" />
    <path
       d="m 881.29999,457.5 0,21.29999 0,0.20001 28,0 0,-21.5 0,0 z"
       class="st7"
       style="fill:#68bac6"
       id="path4253"
       inkscape:connector-curvature="0" />
  </g>
  <path
     d="m 184.37459,179.66995 31.2,0 0,25.9 -31.2,0 0,-25.9 z"
     class="st16"
     style="fill:#0f6086"
     id="path4255"
     inkscape:connector-curvature="0" />
  <path
     d="m 185.97457,181.86996 0,21.40002 0,0.1 28,0 0,-21.5 0,0 z"
     class="st7"
     style="fill:#68bac6"
     id="path4257"
     inkscape:connector-curvature="0" />
  <g
     transform="translate(-695.32542,-310.63004)"
     id="g4259">
    <path
       d="m 824,455.29999 31.2,0 0,25.9 -31.2,0 0,-25.9 z"
       class="st16"
       style="fill:#0f6086"
       id="path4261"
       inkscape:connector-curvature="0" />
    <path
       d="m 825.59998,457.5 0,21.29999 0,0.20001 28,0 0,-21.5 0,0 z"
       class="st7"
       style="fill:#68bac6"
       id="path4263"
       inkscape:connector-curvature="0" />
  </g>
  <path
     d="m 128.67459,179.66995 31.2,0 0,25.9 -31.2,0 0,-25.9 z"
     class="st16"
     style="fill:#0f6086"
     id="path4265"
     inkscape:connector-curvature="0" />
  <path
     d="m 130.27457,181.86996 0,21.40002 0,0.1 28,0 0,-21.5 0,0 z"
     class="st7"
     style="fill:#68bac6"
     id="path4267"
     inkscape:connector-curvature="0" />
  <path
     d="m 277.67458,249.06997 31.2,0 0,25.9 -31.2,0 0,-25.9 z"
     class="st16"
     style="fill:#0f6086"
     id="path4269"
     inkscape:connector-curvature="0" />
  <path
     d="m 279.27456,251.26998 0,21.29999 0,0.20001 28.00002,0 0,-21.5 0,0 z"
     class="st7"
     style="fill:#68bac6"
     id="path4271"
     inkscape:connector-curvature="0" />
  <path
     d="m 221.27456,249.06997 31.2,0 0,25.9 -31.2,0 0,-25.9 z"
     class="st16"
     style="fill:#0f6086"
     id="path4273"
     inkscape:connector-curvature="0" />
  <path
     d="m 222.87459,251.26998 0,21.29999 0,0.20001 28,0 0,-21.5 0,0 z"
     class="st7"
     style="fill:#68bac6"
     id="path4275"
     inkscape:connector-curvature="0" />
  <path
     d="m 184.37459,249.06997 31.2,0 0,25.9 -31.2,0 0,-25.9 z"
     class="st16"
     style="fill:#0f6086"
     id="path4277"
     inkscape:connector-curvature="0" />
  <path
     d="m 185.97457,251.26998 0,21.29999 0,0.20001 28,0 0,-21.5 0,0 z"
     class="st7"
     style="fill:#68bac6"
     id="path4279"
     inkscape:connector-curvature="0" />
  <path
     d="m 128.67459,249.06997 31.2,0 0,25.9 -31.2,0 0,-25.9 z"
     class="st16"
     style="fill:#0f6086"
     id="path4281"
     inkscape:connector-curvature="0" />
  <path
     d="m 130.27457,251.26998 0,21.29999 0,0.20001 28,0 0,-21.5 0,0 z"
     class="st7"
     style="fill:#68bac6"
     id="path4283"
     inkscape:connector-curvature="0" />
  <path
     d="m 277.67458,283.16995 31.2,0 0,25.9 -31.2,0 0,-25.9 z"
     class="st16"
     style="fill:#0f6086"
     id="path4285"
     inkscape:connector-curvature="0" />
  <path
     d="m 279.27456,285.36996 0,21.29999 0,0.20001 28.00002,0 0,-21.5 0,0 z"
     class="st7"
     style="fill:#68bac6"
     id="path4287"
     inkscape:connector-curvature="0" />
  <path
     d="m 316.57458,214.66995 31.2,0 0,25.90002 -31.2,0 0,-25.90002 z"
     class="st16"
     style="fill:#0f6086"
     id="path4289"
     inkscape:connector-curvature="0" />
  <path
     d="m 318.17458,216.86996 0,21.40004 0,0.1 28,0 0,-21.50002 0,0 z"
     class="st7"
     style="fill:#68bac6"
     id="path4291"
     inkscape:connector-curvature="0" />
  <g
     transform="translate(-695.32542,-310.63004)"
     id="g4293">
    <path
       d="m 1011.9,455.29999 31.2,0 0,25.9 -31.2,0 0,-25.9 z"
       class="st16"
       style="fill:#0f6086"
       id="path4295"
       inkscape:connector-curvature="0" />
    <path
       d="m 1013.5,457.5 0,21.29999 0,0.20001 28,0 0,-21.5 0,0 z"
       class="st7"
       style="fill:#68bac6"
       id="path4297"
       inkscape:connector-curvature="0" />
  </g>
  <path
     d="m 316.57458,179.66995 31.2,0 0,25.9 -31.2,0 0,-25.9 z"
     class="st16"
     style="fill:#0f6086"
     id="path4299"
     inkscape:connector-curvature="0" />
  <path
     d="m 318.17458,181.86996 0,21.40002 0,0.1 28,0 0,-21.5 0,0 z"
     class="st7"
     style="fill:#68bac6"
     id="path4301"
     inkscape:connector-curvature="0" />
  <path
     d="m 316.57458,249.06997 31.2,0 0,25.9 -31.2,0 0,-25.9 z"
     class="st16"
     style="fill:#0f6086"
     id="path4303"
     inkscape:connector-curvature="0" />
  <path
     d="m 318.17458,251.26998 0,21.29999 0,0.20001 28,0 0,-21.5 0,0 z"
     class="st7"
     style="fill:#68bac6"
     id="path4305"
     inkscape:connector-curvature="0" />
  <path
     d="m 316.57458,283.16995 31.2,0 0,25.9 -31.2,0 0,-25.9 z"
     class="st16"
     style="fill:#0f6086"
     id="path4307"
     inkscape:connector-curvature="0" />
  <path
     d="m 318.17458,285.36996 0,21.29999 0,0.20001 28,0 0,-21.5 0,0 z"
     class="st7"
     style="fill:#68bac6"
     id="path4309"
     inkscape:connector-curvature="0" />
  <path
     d="m 91.17459,214.66995 31.2,0 0,25.90002 -31.2,0 0,-25.90002 z"
     class="st16"
     style="fill:#0f6086"
     id="path4311"
     inkscape:connector-curvature="0" />
  <path
     d="m 92.77457,216.86996 0,21.40004 0,0.1 28,0 0,-21.50002 0,0 z"
     class="st7"
     style="fill:#68bac6"
     id="path4313"
     inkscape:connector-curvature="0" />
  <g
     transform="translate(-695.32542,-310.63004)"
     id="g4315">
    <path
       d="m 786.5,455.29999 31.2,0 0,25.9 -31.2,0 0,-25.9 z"
       class="st16"
       style="fill:#0f6086"
       id="path4317"
       inkscape:connector-curvature="0" />
    <path
       d="m 788.09998,457.5 0,21.29999 0,0.20001 28,0 0,-21.5 0,0 z"
       class="st7"
       style="fill:#68bac6"
       id="path4319"
       inkscape:connector-curvature="0" />
  </g>
  <path
     d="m 91.17459,179.66995 31.2,0 0,25.9 -31.2,0 0,-25.9 z"
     class="st16"
     style="fill:#0f6086"
     id="path4321"
     inkscape:connector-curvature="0" />
  <path
     d="m 92.77457,181.86996 0,21.40002 0,0.1 28,0 0,-21.5 0,0 z"
     class="st7"
     style="fill:#68bac6"
     id="path4323"
     inkscape:connector-curvature="0" />
  <path
     d="m 91.17459,249.06997 31.2,0 0,25.9 -31.2,0 0,-25.9 z"
     class="st16"
     style="fill:#0f6086"
     id="path4325"
     inkscape:connector-curvature="0" />
  <path
     d="m 92.77457,251.26998 0,21.29999 0,0.20001 28,0 0,-21.5 0,0 z"
     class="st7"
     style="fill:#68bac6"
     id="path4327"
     inkscape:connector-curvature="0" />
  <path
     d="m 91.17459,283.16995 31.2,0 0,25.9 -31.2,0 0,-25.9 z"
     class="st16"
     style="fill:#0f6086"
     id="path4329"
     inkscape:connector-curvature="0" />
  <path
     d="m 92.77457,285.36996 0,21.29999 0,0.20001 28,0 0,-21.5 0,0 z"
     class="st7"
     style="fill:#68bac6"
     id="path4331"
     inkscape:connector-curvature="0" />
  <path
     d="m 128.67459,283.16995 31.2,0 0,25.9 -31.2,0 0,-25.9 z"
     class="st16"
     style="fill:#0f6086"
     id="path4333"
     inkscape:connector-curvature="0" />
  <path
     d="m 130.27457,285.36996 0,21.29999 0,0.20001 28,0 0,-21.5 0,0 z"
     class="st7"
     style="fill:#68bac6"
     id="path4335"
     inkscape:connector-curvature="0" />
  <path
     d="m 193.27456,66.969788 11.3,0 0,52.200602 -11.3,0 0,-52.200602 z"
     class="st3"
     style="opacity:0.3;fill:#5a1300"
     id="path4337"
     inkscape:connector-curvature="0" />
  <g
     transform="matrix(0.50654286,0,0,0.50654286,164.93559,43.845327)"
     id="g4339">
    <g
       id="g-1">
      <g
         id="g-2">
        <path
           class="st0"
           d="m 58,49 100,0 0,100 -100,0 0,-100 z"
           style="fill:#157eaf"
           id="path4343"
           inkscape:connector-curvature="0" />
      </g>
    </g>
  </g>
  <path
     d="m 87.8746,356.27001 0,-3.20001 37.5,0 0,-221.90021 -38.10003,0 0,-12.00003 -8.5,0 0,12.00003 5.40002,0 0,221.90021 -1.29999,0 0,4.39997 273.39998,0.20001 0,-1.20001 z"
     class="st3"
     style="opacity:0.3;fill:#5a1300"
     id="path4345"
     inkscape:connector-curvature="0" />
  <path
     d="m 359.97458,131.1704 0,-12.00003 -114.50001,0 0,-52.200582 -40.79999,0 0,0 -11.40002,0 0,0 0,52.200582 0,0 -105.99999,0 0,0 -8.5,0 0,0 0,12.00003 0,0 5.40002,0 0,221.90021 -1.29999,0 0,0 0,0 0,4.39997 273.39998,0.20001 0,-1.20001 0,0 0,-3.19996 -1.7,0 0,-222.10022 z"
     class="st18"
     style="fill:none;stroke:#00405c;stroke-width:4;stroke-linecap:round;stroke-linejoin:round;stroke-miterlimit:10"
     id="path4347"
     inkscape:connector-curvature="0" />
  <g
     transform="matrix(0.56769776,0,0,0.56769776,-267.97489,-183.8344)"
     id="g4349">
    <path
       d="m 824,455.29999 31.2,0 0,25.9 -31.2,0 0,-25.9 z"
       class="st16"
       style="fill:#0f6086"
       id="path4351"
       inkscape:connector-curvature="0" />
    <path
       d="m 825.59998,457.5 0,21.29999 0,0.20001 28,0 0,-21.5 0,0 z"
       class="st7"
       style="fill:#68bac6"
       id="path4353"
       inkscape:connector-curvature="0" />
  </g>
  <g
     transform="matrix(0.56769776,0,0,0.56769776,-246.08509,-183.8344)"
     id="g4355">
    <path
       d="m 824,455.29999 31.2,0 0,25.9 -31.2,0 0,-25.9 z"
       class="st16"
       style="fill:#0f6086"
       id="path4357"
       inkscape:connector-curvature="0" />
    <path
       d="m 825.59998,457.5 0,21.29999 0,0.20001 28,0 0,-21.5 0,0 z"
       class="st7"
       style="fill:#68bac6"
       id="path4359"
       inkscape:connector-curvature="0" />
  </g>
  <g
     transform="matrix(0.56769776,0,0,0.56769776,-267.92042,-164.54346)"
     id="g4361">
    <path
       d="m 824,455.29999 31.2,0 0,25.9 -31.2,0 0,-25.9 z"
       class="st16"
       style="fill:#0f6086"
       id="path4363"
       inkscape:connector-curvature="0" />
    <path
       d="m 825.59998,457.5 0,21.29999 0,0.20001 28,0 0,-21.5 0,0 z"
       class="st7"
       style="fill:#68bac6"
       id="path4365"
       inkscape:connector-curvature="0" />
  </g>
  <g
     transform="matrix(0.56769776,0,0,0.56769776,-246.08708,-164.54346)"
     id="g4367">
    <path
       d="m 824,455.29999 31.2,0 0,25.9 -31.2,0 0,-25.9 z"
       class="st16"
       style="fill:#0f6086"
       id="path4369"
       inkscape:connector-curvature="0" />
    <path
       d="m 825.59998,457.5 0,21.29999 0,0.20001 28,0 0,-21.5 0,0 z"
       class="st7"
       style="fill:#68bac6"
       id="path4371"
       inkscape:connector-curvature="0" />
  </g>
  <g
     transform="matrix(0.09999987,0,0,0.50999999,188.81118,43.636097)"
     id="g4373">
    <g
       id="g-3">
      <g
         id="g-4">
        <path
           class="st0"
           d="m 58,49 100,0 0,100 -100,0 0,-100 z"
           style="fill:#000000;fill-opacity:0.27000002"
           id="path4377"
           inkscape:connector-curvature="0" />
      </g>
    </g>
  </g>
</svg>
